HIERARCHY
ROOT hip
{
	OFFSET 0.000000 0.000000 0.000000 
	CHANNELS 6 Xposition Yposition Zposition Xrotation Zrotation Yrotation
	JOINT abdomen
	{
		OFFSET 0.000000 3.402643 0.000000 
		CHANNELS 3 Xrotation Zrotation Yrotation
		JOINT chest
		{
			OFFSET 0.000000 8.438565 -0.680529 
			CHANNELS 3 Xrotation Zrotation Yrotation
			JOINT neck
			{
				OFFSET 0.000000 10.207942 -0.272212 
				CHANNELS 3 Xrotation Zrotation Yrotation
				JOINT head
				{
					OFFSET 0.000000 3.130431 0.000000 
					CHANNELS 3 Xrotation Zrotation Yrotation
					End Site
					{
						OFFSET 0.000000 3.130435 0.000000 
					}
				}
			}
			JOINT lCollar
			{
				OFFSET 3.470700 6.669187 -0.816635 
				CHANNELS 3 Yrotation Zrotation Xrotation
				JOINT lShldr
				{
					OFFSET 3.198488 0.000000 0.000000 
					CHANNELS 3 Zrotation Yrotation Xrotation
					JOINT lForeArm
					{
						OFFSET 10.139888 0.000000 0.000000 
						CHANNELS 3 Yrotation Zrotation Xrotation
						JOINT lHand
						{
							OFFSET 8.370511 0.000000 0.000000 
							CHANNELS 3 Zrotation Yrotation Xrotation
							End Site
							{
								OFFSET 4.083176 0.000000 0.000000 
							}
						}
					}
				}
			}
			JOINT rCollar
			{
				OFFSET -3.470700 6.669187 -0.816635 
				CHANNELS 3 Yrotation Zrotation Xrotation
				JOINT rShldr
				{
					OFFSET -3.198488 0.000000 0.000000 
					CHANNELS 3 Zrotation Yrotation Xrotation
					JOINT rForeArm
					{
						OFFSET -10.139888 0.000000 0.000000 
						CHANNELS 3 Yrotation Zrotation Xrotation
						JOINT rHand
						{
							OFFSET -8.370511 0.000000 0.000000 
							CHANNELS 3 Zrotation Yrotation Xrotation
							End Site
							{
								OFFSET -4.083176 0.000000 0.000000 
							}
						}
					}
				}
			}
		}
	}
	JOINT lThigh
	{
		OFFSET 5.308129 -1.633274 1.361059 
		CHANNELS 3 Xrotation Zrotation Yrotation
		JOINT lShin
		{
			OFFSET -2.041588 -20.007561 0.000000 
			CHANNELS 3 Xrotation Zrotation Yrotation
			JOINT lFoot
			{
				OFFSET 0.000000 -19.190928 -1.224953 
				CHANNELS 3 Xrotation Yrotation Zrotation
				End Site
				{
					OFFSET 0.000000 -2.449906 4.627600 
				}
			}
		}
	}
	JOINT rThigh
	{
		OFFSET -5.308129 -1.633274 1.361059 
		CHANNELS 3 Xrotation Zrotation Yrotation
		JOINT rShin
		{
			OFFSET 2.041588 -20.007561 0.000000 
			CHANNELS 3 Xrotation Zrotation Yrotation
			JOINT rFoot
			{
				OFFSET 0.000000 -19.190928 -1.224953 
				CHANNELS 3 Xrotation Yrotation Zrotation
				End Site
				{
					OFFSET 0.000000 -2.449906 4.627600 
				}
			}
		}
	}
}
MOTION
Frames: 14
Frame Time: 0.011111
47.063797 52.208725 -18.303965 -5.489062 4.176373 -91.090561 19.804077 -10.879338 1.096877 -18.993765 2.078910 1.220162 -13.195707 -5.761549 -4.919699 27.377428 10.818537 -9.522235 -0.892466 -0.957000 1.218467 -69.438927 -25.267796 10.642214 -47.748478 7.148279 7.257798 8.524705 12.647240 -46.468151 -4.058817 0.661413 2.306497 68.036819 29.608969 -12.934442 55.030514 -8.684310 10.239926 -8.534408 -12.637552 48.128765 -2.630246 -1.209031 2.881604 25.911077 -5.545792 -4.333656 -26.659399 -2.394321 -3.250054 -20.454443 -15.934221 1.072503 50.953487 3.683880 7.288594 -21.158051 -10.876656 -1.077004 
47.004513 52.200558 -18.286726 -5.606831 3.951036 -90.882256 20.156881 -11.067276 0.909394 -19.091572 2.178638 1.187320 -13.119206 -5.810223 -5.037282 27.423349 10.921656 -9.741091 -0.892466 -0.957000 1.218467 -69.374901 -25.392620 10.188646 -47.395340 7.051157 7.119986 8.524705 12.647240 -47.054085 -4.058817 0.661413 2.306497 67.492592 29.981180 -12.221756 55.760799 -8.797617 10.555992 -8.534408 -12.637552 49.281113 -2.167954 -1.386132 2.611014 25.655197 -5.579200 -4.298389 -26.709394 -2.479599 -3.275633 -20.933582 -16.139761 0.896286 51.797947 3.595895 7.367501 -21.665949 -9.966746 -0.929633 
46.945232 52.198139 -18.262527 -5.887126 3.989921 -90.843208 20.199995 -11.500449 0.612738 -19.150341 2.306756 1.145900 -13.422705 -5.450177 -4.978965 27.901114 10.564463 -9.602412 -0.892466 -0.957000 1.218467 -69.294235 -25.448458 9.875934 -47.106350 6.980886 7.015763 8.524705 12.647240 -46.849010 -4.058817 0.661413 2.306497 67.050209 30.388477 -11.304504 56.554676 -8.907672 10.902311 -8.534408 -12.637552 50.218609 -1.991405 -1.767088 2.382962 25.476515 -5.575701 -4.261553 -26.848396 -2.628907 -3.359215 -21.804369 -16.492485 1.005348 52.386742 3.509963 7.444127 -21.817892 -9.374004 -0.780608 
46.898052 52.199955 -18.235004 -6.032954 4.159404 -90.757004 20.107561 -11.593787 0.513240 -19.199133 2.249098 1.124513 -13.718195 -5.576323 -4.867748 28.552551 10.781740 -9.360473 -0.892466 -0.957000 1.218467 -69.218353 -25.621735 9.529727 -46.753880 6.878955 6.871003 8.524705 12.647240 -46.761116 -4.058817 0.661413 2.306497 66.635841 31.166006 -11.260486 56.893867 -8.951951 11.047521 -8.534408 -12.637552 50.482281 -1.987141 -1.978394 2.216312 25.292152 -5.598394 -4.239724 -26.908529 -2.630687 -3.339767 -22.736073 -16.664455 1.150424 52.886772 3.488232 7.475323 -21.760374 -9.066318 -0.651890 
46.856010 52.206909 -18.242266 -6.149709 4.244172 -90.436401 20.143791 -11.618149 0.327061 -19.335871 2.202773 1.080291 -13.604852 -6.113713 -4.820250 28.849619 11.500764 -9.243534 -0.892466 -0.957000 1.218467 -69.140343 -25.843803 8.568252 -46.320217 6.761015 6.707626 8.524705 12.647240 -48.352921 -4.058817 0.661413 2.306497 66.149933 32.131641 -11.824989 56.809765 -8.943651 11.013476 -8.534408 -12.637552 50.199078 -1.967371 -2.074796 2.170951 25.202187 -5.599355 -4.222372 -26.677933 -2.489717 -3.292417 -23.436329 -16.776484 1.179788 53.200550 3.441441 7.517743 -21.951454 -8.535428 -0.541503 
46.795822 52.195415 -18.264042 -6.413298 4.256814 -90.366936 20.206894 -12.017751 0.079292 -19.433887 2.429036 1.045487 -13.347936 -6.372873 -4.809749 28.833685 11.816628 -9.217967 -0.892466 -0.957000 1.218467 -69.104744 -25.989162 7.650194 -45.876400 6.634394 6.537020 8.524705 12.647240 -49.729866 -4.058817 0.661413 2.306497 65.508301 32.613819 -11.086989 57.296749 -9.001341 11.219352 -8.534408 -12.637552 50.745949 -1.845585 -2.333839 2.245496 25.152460 -5.599346 -4.208263 -26.617876 -2.416646 -3.252252 -24.098339 -16.980309 1.361483 53.308262 3.439335 7.525644 -21.637663 -8.200399 -0.353018 
46.717182 52.179993 -18.250126 -6.345262 4.234978 -90.412552 20.223721 -11.994897 0.157267 -19.404621 2.467673 1.066040 -13.236709 -6.226259 -4.877030 28.762213 11.566853 -9.359298 -0.892466 -0.957000 1.218467 -68.938637 -25.983395 8.050177 -45.712170 6.591338 6.472775 8.524705 12.647240 -49.026749 -4.058817 0.661413 2.306497 64.984520 33.042652 -10.290400 58.104687 -9.098315 11.571023 -8.534408 -12.637552 51.478378 -1.693780 -2.298495 2.223869 25.110512 -5.608601 -4.206618 -26.737112 -2.416687 -3.233665 -24.524286 -16.860897 1.436402 53.239624 3.466777 7.504066 -20.898804 -8.412222 -0.243162 
46.638844 52.190578 -18.248917 -5.978561 4.227416 -90.208488 20.265409 -11.597218 0.311664 -19.375183 2.379288 1.077515 -13.342465 -6.153238 -4.941784 28.900661 11.517742 -9.472949 -0.892466 -0.957000 1.218467 -68.664642 -25.983654 8.860085 -45.690903 6.581186 6.465791 8.524705 12.647240 -47.864635 -4.058817 0.661413 2.306497 64.572433 34.102695 -10.855302 58.284805 -9.116456 11.652652 -8.534408 -12.637552 51.312355 -1.625533 -1.909252 2.178239 25.042669 -5.594683 -4.217070 -26.623581 -2.529201 -3.317294 -24.752855 -16.443363 1.210145 52.985462 3.460849 7.480181 -20.639013 -8.572974 -0.251140 
46.561417 52.193302 -18.276745 -6.022980 4.337555 -89.968605 20.283939 -11.877530 0.309513 -19.365652 2.564793 1.106301 -13.482193 -6.252482 -5.082960 28.968903 11.854842 -9.708507 -0.892466 -0.957000 1.218467 -68.637184 -26.393160 7.894391 -45.330853 6.477810 6.323194 8.524705 12.647240 -48.811897 -4.058817 0.661413 2.306497 64.037491 35.137402 -11.537709 58.360783 -9.129330 11.685871 -8.534408 -12.637552 51.204933 -1.608397 -1.940213 2.067447 24.960144 -5.609401 -4.192710 -26.509678 -2.729896 -3.413887 -25.251381 -16.434010 1.197096 52.602455 3.507946 7.451395 -20.667011 -8.550396 -0.251308 
46.463722 52.174553 -18.273115 -6.270030 4.517499 -89.715248 20.139511 -12.185901 0.171755 -19.307199 2.710067 1.088819 -13.381420 -6.490674 -5.208767 28.819143 12.217969 -9.950114 -0.892466 -0.957000 1.218467 -68.803749 -26.838734 6.255171 -44.929447 6.358132 6.175619 8.524705 12.647240 -50.481823 -4.058817 0.661413 2.306497 63.354145 35.854202 -11.348041 58.635605 -9.152745 11.803578 -8.534408 -12.637552 51.605331 -1.578598 -2.251613 1.843787 24.860682 -5.609122 -4.164434 -26.681540 -2.778059 -3.430725 -25.825800 -16.706453 1.287305 52.082813 3.566529 7.387273 -20.531748 -8.244043 -0.121901 
46.359982 52.171524 -18.243170 -6.086968 4.520588 -89.463951 20.103439 -11.749700 0.119678 -19.326462 2.485623 1.040023 -13.223324 -6.780646 -5.160077 28.896475 12.522662 -9.855415 -0.892466 -0.957000 1.218467 -68.769753 -26.945051 5.893771 -44.713650 6.292016 6.088854 8.524705 12.647240 -50.657604 -4.058817 0.661413 2.306497 62.759079 36.528584 -10.851606 58.880547 -9.178979 11.917707 -8.534408 -12.637552 51.839703 -1.442304 -2.085527 1.849715 24.768608 -5.618288 -4.158350 -26.773508 -2.907049 -3.487440 -25.988234 -16.538450 1.272069 51.434532 3.642510 7.329313 -20.245684 -8.121324 -0.003229 
46.285580 52.176670 -18.242567 -5.782807 4.466313 -89.350128 20.290684 -11.383595 0.325757 -19.423840 2.223841 1.056889 -13.447195 -6.749880 -5.130128 29.389238 12.657969 -9.742307 -0.892466 -0.957000 1.218467 -68.488052 -27.120955 6.103566 -44.590981 6.261258 6.053930 8.524705 12.647240 -50.442760 -4.058817 0.661413 2.306497 62.506550 37.357754 -11.159004 59.220207 -9.208164 12.060302 -8.534408 -12.637552 51.634621 -1.334886 -1.715025 1.986695 24.688812 -5.618072 -4.141560 -26.694607 -3.114249 -3.601500 -26.059565 -16.100794 1.367287 50.649136 3.720737 7.250736 -20.122021 -8.581802 -0.134619 
46.216621 52.170616 -18.281887 -5.687592 4.623290 -89.324181 20.305508 -11.588750 0.548393 -19.433733 2.322155 1.134034 -13.725284 -6.561776 -5.250741 29.602470 12.684209 -9.946062 -0.892466 -0.957000 1.218467 -68.323158 -27.310688 6.196418 -44.642097 6.274833 6.071465 8.524705 12.647240 -50.364635 -4.058817 0.661413 2.306497 62.183586 38.198891 -11.576406 59.667793 -9.249660 12.257423 -8.534408 -12.637552 51.702984 -1.428976 -1.595540 1.814903 24.628103 -5.617832 -4.154708 -26.815573 -3.027411 -3.559335 -26.434679 -15.800232 1.789828 49.755669 3.791256 7.168109 -20.234083 -8.648148 -0.171950 
46.120434 52.174850 -18.302452 -5.545372 4.676688 -89.211777 20.343895 -11.525416 0.607276 -19.570774 2.491030 1.146609 -13.515477 -6.738571 -5.385272 29.232777 12.902136 -10.218488 -0.892466 -0.957000 1.218467 -68.490974 -27.277424 5.825676 -44.744347 6.301856 6.106628 8.524705 12.647240 -50.520885 -4.058817 0.661413 2.306497 61.463833 38.856907 -11.315079 60.029831 -9.279858 12.423003 -8.534408 -12.637552 52.269390 -1.350585 -1.468215 1.501466 24.516272 -5.628225 -4.127737 -27.018421 -2.777883 -3.409879 -26.578743 -15.505978 2.178081 48.743164 3.898936 7.062028 -20.203093 -8.341904 -0.075307 
